<?xml version="1.0" standalone="no"?>
<!DOCTYPE svg PUBLIC "-//W3C//DTD SVG 20010904//EN"
 "http://www.w3.org/TR/2001/REC-SVG-20010904/DTD/svg10.dtd">
<svg version="1.0" xmlns="http://www.w3.org/2000/svg"
 width="1280.000000pt" height="803.000000pt" viewBox="0 0 1280.000000 803.000000"
 preserveAspectRatio="xMidYMid meet">
<g transform="translate(0.000000,803.000000) scale(0.100000,-0.100000)"
fill="#000000" stroke="none">
<path d="M11800 7428 c-123 -176 -513 -614 -721 -810 -311 -293 -619 -529
-864 -663 -38 -21 -127 -78 -198 -127 -70 -49 -132 -88 -139 -86 -6 2 21 40
60 83 73 83 118 150 105 158 -19 11 -251 -39 -376 -80 -146 -48 -335 -149
-407 -218 -48 -46 -891 -602 -1074 -709 -81 -48 -232 -129 -335 -180 -102 -51
-242 -122 -311 -158 -87 -45 -160 -74 -240 -96 -193 -52 -231 -58 -308 -44
-95 16 -294 82 -312 104 -8 9 -46 38 -85 63 -39 26 -72 55 -75 66 -6 23 -98
60 -265 106 -80 22 -103 24 -210 19 -309 -14 -518 -101 -557 -233 -7 -25 -18
-47 -24 -50 -20 -7 -213 54 -365 116 -306 125 -494 232 -1092 625 -454 299
-753 481 -932 568 l-109 53 -114 3 -114 4 22 -40 c12 -21 53 -73 91 -115 109
-119 93 -118 -86 6 -74 50 -195 127 -269 171 -399 233 -954 736 -1274 1154
-95 124 -312 350 -312 325 0 -22 42 -173 72 -258 36 -102 143 -316 205 -410
33 -49 101 -139 151 -200 155 -187 151 -205 -15 -79 -132 99 -554 386 -560
380 -7 -7 139 -289 199 -385 116 -185 258 -342 458 -510 74 -62 109 -97 98
-99 -9 -2 -96 34 -195 78 -305 140 -599 258 -611 246 -5 -6 58 -93 111 -156
17 -19 105 -106 196 -194 214 -205 415 -357 576 -435 66 -32 140 -68 165 -80
l45 -22 -80 7 c-150 12 -416 12 -412 0 10 -31 320 -245 423 -292 41 -19 72
-39 69 -44 -3 -6 -31 -10 -61 -10 -65 0 -124 -22 -124 -46 0 -42 178 -179 338
-258 40 -20 52 -32 52 -50 0 -33 26 -52 132 -98 l93 -40 142 4 c79 3 143 4
143 3 0 -2 -33 -36 -74 -76 -87 -87 -116 -139 -116 -206 0 -41 6 -55 37 -95
21 -25 52 -54 68 -64 17 -9 45 -31 64 -47 19 -16 49 -36 68 -43 29 -13 32 -16
23 -40 -16 -40 -12 -77 16 -165 32 -101 49 -128 90 -145 22 -9 33 -22 37 -41
8 -43 41 -79 122 -133 41 -27 76 -54 80 -60 3 -5 21 -10 39 -10 32 0 34 -2 50
-61 10 -33 29 -74 44 -90 24 -27 36 -31 104 -38 43 -4 80 -10 85 -14 4 -4 6
-29 4 -56 -1 -27 3 -68 9 -91 14 -51 44 -66 163 -82 139 -17 129 -12 122 -62
-9 -55 -9 -55 149 -91 127 -30 189 -30 246 0 36 18 50 13 50 -19 0 -13 9 -31
20 -41 35 -32 242 -115 285 -115 14 0 33 -13 49 -34 42 -55 106 -80 206 -81
l85 0 3 -32 c6 -66 80 -94 179 -69 77 20 92 20 99 -1 19 -59 31 -76 74 -107
26 -19 61 -41 78 -50 35 -18 107 -21 117 -6 13 21 43 10 54 -20 25 -73 187
-66 226 9 12 25 22 31 48 31 62 0 137 46 225 137 54 56 87 83 97 79 8 -3 32 6
52 20 20 13 41 23 47 21 12 -4 34 -86 35 -134 1 -30 -2 -32 -55 -48 -37 -11
-67 -28 -88 -49 -17 -19 -62 -53 -101 -76 -253 -155 -429 -283 -517 -378 -75
-82 -80 -98 -37 -134 19 -16 58 -36 87 -44 28 -9 52 -18 52 -22 0 -4 -10 -26
-22 -49 l-23 -43 20 -20 c31 -30 132 -63 203 -65 34 -1 65 -5 68 -7 2 -3 -3
-33 -12 -66 -16 -57 -16 -63 -1 -86 18 -26 70 -46 125 -46 l32 0 0 -70 c0 -65
2 -71 27 -87 41 -27 123 -24 163 6 35 26 42 22 59 -29 6 -20 38 -78 71 -129
56 -85 63 -93 88 -89 15 3 34 8 43 12 13 6 23 -7 48 -59 35 -76 137 -185 173
-185 45 0 144 106 170 182 18 54 27 61 54 43 13 -8 30 -15 39 -15 18 0 137
178 154 232 16 49 23 52 57 25 23 -17 41 -22 90 -22 88 0 104 17 104 107 l0
68 33 0 c54 0 106 20 124 46 15 23 15 29 -1 86 -9 33 -14 63 -11 66 3 3 34 7
68 8 66 2 169 33 199 61 23 21 23 40 -3 82 -23 38 -20 43 37 59 61 17 108 53
112 84 7 58 -216 250 -479 413 -189 118 -200 125 -206 141 -7 18 -74 54 -101
54 -10 0 -26 6 -37 13 -25 19 -13 64 20 77 20 8 25 16 25 45 0 39 7 42 36 20
10 -8 31 -15 45 -15 19 0 43 -19 93 -75 77 -86 149 -132 219 -141 40 -6 50
-12 63 -36 19 -36 68 -58 131 -58 55 0 89 19 104 57 8 20 14 24 32 18 12 -4
42 -10 67 -12 40 -4 52 0 100 32 81 55 109 85 116 122 3 18 9 35 13 37 3 3 42
-4 86 -15 65 -15 86 -16 117 -7 45 13 58 27 67 71 l7 32 94 5 c107 6 140 20
199 81 25 25 48 39 64 39 28 0 65 13 186 64 90 38 98 45 108 89 6 31 16 33 66
12 20 -8 61 -15 92 -15 62 0 260 44 283 62 10 9 12 24 8 54 l-5 42 62 7 c99
11 194 35 210 53 22 24 39 107 31 149 -8 43 4 53 66 53 105 0 144 30 174 133
9 31 20 57 24 58 4 0 18 2 32 3 52 4 225 150 238 200 5 19 19 36 35 44 40 20
65 57 93 146 21 65 25 93 20 143 -5 57 -4 61 17 67 53 13 219 156 238 206 6
13 7 46 4 73 -8 55 -64 138 -138 203 -26 23 -47 45 -47 50 0 5 66 8 147 6
l148 -3 88 36 c87 37 127 70 127 106 0 12 20 28 63 48 157 76 327 210 327 258
0 21 -63 43 -124 43 -30 0 -58 5 -61 10 -4 6 22 23 59 40 36 17 90 45 119 62
80 49 289 203 321 237 35 37 30 63 -11 56 -45 -8 -451 -65 -463 -65 -27 0 -4
20 48 40 220 87 468 260 712 497 166 161 336 363 305 363 -9 0 -230 -83 -305
-115 -36 -15 -158 -69 -272 -121 -114 -52 -212 -94 -218 -94 -24 0 -4 22 83
93 105 86 311 294 378 382 72 94 143 213 224 373 41 82 75 152 75 156 0 4 -36
-22 -79 -58 -199 -164 -562 -406 -611 -406 -21 0 -8 20 101 155 149 185 203
267 261 399 57 129 116 324 125 414 3 34 4 62 1 62 -2 0 -24 -28 -48 -62z"/>
</g>
</svg>
